HIERARCHY
ROOT Hips
{
  OFFSET -102.467 93.6631 130.069
  CHANNELS 6 Xposition Yposition Zposition Zrotation Xrotation Yrotation
  JOINT LeftUpLeg
  {
    OFFSET 8.64259 1.95398 -2.38835
    CHANNELS 3 Zrotation Xrotation Yrotation
    JOINT LeftLeg
    {
      OFFSET 43.7702 0 0
      CHANNELS 3 Zrotation Xrotation Yrotation
      JOINT LeftFoot
      {
        OFFSET 40.6238 0 0
        CHANNELS 3 Zrotation Xrotation Yrotation
        JOINT LeftToeBase
        {
          OFFSET 12.7242 0 0
          CHANNELS 3 Zrotation Xrotation Yrotation
          End Site
          {
            OFFSET 0 0 0
          }
        }
      }
    }
  }
  JOINT RightUpLeg
  {
    OFFSET -8.2249 1.95398 -2.59336
    CHANNELS 3 Zrotation Xrotation Yrotation
    JOINT RightLeg
    {
      OFFSET 43.5653 0 0
      CHANNELS 3 Zrotation Xrotation Yrotation
      JOINT RightFoot
      {
        OFFSET 40.6238 0 0
        CHANNELS 3 Zrotation Xrotation Yrotation
        JOINT RightToeBase
        {
          OFFSET 12.7242 0 0
          CHANNELS 3 Zrotation Xrotation Yrotation
          End Site
          {
            OFFSET 0 0 0
          }
        }
      }
    }
  }
  JOINT Spine
  {
    OFFSET 0.165834 0.87714 6.61349
    CHANNELS 3 Zrotation Xrotation Yrotation
    JOINT Spine1
    {
      OFFSET 7.38963 1.71661e-005 0
      CHANNELS 3 Zrotation Xrotation Yrotation
      JOINT Spine2
      {
        OFFSET 11.9445 1.14441e-005 0
        CHANNELS 3 Zrotation Xrotation Yrotation
        JOINT Spine3
        {
          OFFSET 14.7254 4.19617e-005 0
          CHANNELS 3 Zrotation Xrotation Yrotation
          JOINT Spine4
          {
            OFFSET 10.9679 0 0
            CHANNELS 3 Zrotation Xrotation Yrotation
            JOINT RightShoulder
            {
              OFFSET 2.46616 -1.6653 3.69651
              CHANNELS 3 Zrotation Xrotation Yrotation
              JOINT RightArm
              {
                OFFSET 13.0012 0 0
                CHANNELS 3 Zrotation Xrotation Yrotation
                JOINT RightForeArm
                {
                  OFFSET 28.7848 1.52588e-005 0
                  CHANNELS 3 Zrotation Xrotation Yrotation
                  JOINT RightHand
                  {
                    OFFSET 26.5688 1.52588e-005 0
                    CHANNELS 3 Zrotation Xrotation Yrotation
                    End Site
                    {
                      OFFSET 0 0 0
                    }
                  }
                }
              }
            }
            JOINT LeftShoulder
            {
              OFFSET 2.38034 -1.29275 -3.7523
              CHANNELS 3 Zrotation Xrotation Yrotation
              JOINT LeftArm
              {
                OFFSET 16.3182 6.10351e-005 0
                CHANNELS 3 Zrotation Xrotation Yrotation
                JOINT LeftForeArm
                {
                  OFFSET 27.0901 0 0
                  CHANNELS 3 Zrotation Xrotation Yrotation
                  JOINT LeftHand
                  {
                    OFFSET 24.5451 1.52588e-005 0
                    CHANNELS 3 Zrotation Xrotation Yrotation
                    End Site
                    {
                      OFFSET 0 0 0
                    }
                  }
                }
              }
            }
            JOINT Neck
            {
              OFFSET 5.0226 -0.0266342 0
              CHANNELS 3 Zrotation Xrotation Yrotation
              JOINT Head
              {
                OFFSET 6.69363 2.86102e-005 0
                CHANNELS 3 Zrotation Xrotation Yrotation
                End Site
                {
                  OFFSET 0 0 0
                }
              }
            }
          }
        }
      }
    }
  }
}
MOTION
Frames:	15
Frame Time:	0.0416667
85.8424 98.5479 -108.532 -103.178 -47.2031 -99.1311 179.821 12.1457 87.29 -11.8446 10.3547 1.2019 49.873 0.0264478 6.94849 43.8045 -0.0622913 8.52307 174.991 -0.922967 89.4633 -31.056 -6.67272 -0.69856 71.2007 3.66433 13.5454 29.0812 1.19901 7.77689 0.643609 7.77968 -90.6303 11.319 0.987132 -1.35348 -0.352314 0.926605 -1.3956 -22.8871 1.34825 -0.994251 -2.87442 1.34825 -0.994266 99.8832 -53.2863 -85.5905 19.1091 -15.6612 -12.3473 -6.06711 -10.6359 -25.6074 -8.41574 -0.359739 -0.217284 -87.4731 -57.0882 83.4004 -25.333 5.99059 -2.67732 -2.67478 30.4816 -1.36038 -3.50095 -0.0891667 -4.50783 3.85318 0.941259 -2.05586 -21.7392 0.643336 4.14107 
79.418 97.7332 -102.518 -101.783 -45.4627 -97.0003 -179.101 16.5677 87.9117 -6.85201 13.2466 1.98845 57.3045 -1.07574 1.86545 37.8416 -0.274127 5.43417 175.091 -5.94961 90.3761 -30.1841 -7.21233 -1.24592 70.3405 3.87789 15.3519 36.0452 0.211684 8.54268 0.831833 7.7072 -90.5907 11.4668 1.37904 -1.31673 -0.204162 1.31977 -1.37615 -22.7427 1.711 -0.841367 -2.73002 1.711 -0.841364 99.0764 -54.0015 -86.76 16.2721 -16.2279 -16.6559 -7.94883 -12.1684 -27.9954 -7.34113 -0.338544 0.209829 -86.7142 -56.8237 84.4216 -25.6671 5.32786 -2.53491 -2.1448 31.1523 -1.5453 -5.0781 -0.0648463 -5.50298 3.6756 1.00624 -3.67531 -21.5186 0.734208 5.81413 
72.41 96.1076 -95.2402 -101.247 -45.4586 -97.1906 -179.695 17.4032 86.8187 -11.4347 15.356 1.6111 51.6249 -2.652 5.59962 40.8747 -0.00932621 8.21657 174.814 -10.1848 88.848 -32.21 -9.1072 -2.15796 66.6855 5.77789 18.2589 46.9417 -0.621515 10.7559 0.897815 7.60908 -90.3205 11.6625 1.63552 -0.810702 -0.00769459 1.59827 -0.881916 -22.5506 1.80355 -0.281545 -2.53796 1.80356 -0.281551 99.6543 -54.7124 -85.8707 18.1197 -15.2059 -14.8006 -8.78646 -11.2297 -30.4555 -8.16013 -0.425808 0.968982 -86.7071 -57.4868 84.5232 -23.7581 4.78783 -5.81435 -3.16695 35.089 0.11764 -5.04829 -0.0798827 -4.92111 4.81887 0.506698 -4.95345 -21.6865 0.508594 5.76695 
65.2023 94.5345 -87.5957 -101.377 -45.3682 -99.0013 179.593 20.2215 84.0778 -28.2115 17.4311 2.31808 53.0707 -1.58999 12.3207 39.7123 -1.28898 -0.478283 172.581 -10.1059 84.7907 -38.9237 -9.57186 -2.1996 49.9465 11.7683 24.2585 28.3324 3.61037 25.7297 0.830599 7.49276 -89.8819 11.8905 1.70724 0.0515502 0.220741 1.70789 -0.0236722 -22.3228 1.61279 0.562393 -2.31018 1.61284 0.562405 100.202 -54.6503 -85.0652 22.5549 -16.519 -8.99788 -8.87582 -11.7905 -30.1254 -8.05257 -0.387868 0.404447 -87.118 -57.6305 83.9731 -22.1207 4.62521 -8.61327 -3.2348 35.2762 -0.00561519 -3.01282 -0.0902371 -3.07411 6.43488 0.278584 -4.90842 -22.4441 0.491736 4.60712 
58.4992 94.6672 -80.6202 -103.017 -44.5942 -101.295 -179.327 15.5628 82.2554 -34.8903 17.4409 2.06977 59.3418 3.52323 16.8747 38.6683 -1.68615 -3.45231 174.065 1.06765 83.5937 -58.4441 -16.1434 -2.91655 43.4963 12.2592 15.3066 35.1177 1.15667 12.2199 0.53567 7.66063 -89.6099 11.5491 1.24824 0.649026 -0.121432 1.27559 0.593445 -22.6586 0.995495 0.994183 -2.64597 0.995458 0.994166 99.7391 -54.5257 -85.7531 26.674 -15.7205 -5.84633 -8.86582 -15.467 -26.3256 -5.83922 -0.366787 2.3424 -87.2024 -57.0066 83.7658 -21.1558 4.92033 -14.2348 -3.03405 35.3443 -0.00555818 -1.30525 -0.101417 -5.53823 8.06358 1.19358 -3.61774 -23.6391 1.03447 5.22273 
52.0823 95.9886 -73.6707 -104.161 -46.6566 -99.9798 -178.574 8.3198 84.2878 -34.8496 19.6434 3.40247 62.9444 6.31371 17.4129 41.351 -1.89647 -2.38425 173.879 11.609 86.5645 -63.4525 -12.6031 -1.7045 47.5286 10.3017 14.7265 26.9228 1.96895 10.6954 0.0675484 7.64364 -89.906 11.5864 0.178556 0.170633 -0.0845931 0.1859 0.162595 -22.6196 0.119019 0.216401 -2.60694 0.119033 0.216406 100.356 -54.5317 -84.8426 28.9144 -13.4931 -2.55851 -7.41313 -18.2687 -20.8449 -5.30736 -0.288166 1.20542 -86.9743 -56.1027 83.9549 -20.902 5.50945 -21.1635 -2.71369 36.0203 0.102014 0.43171 -0.096847 -4.63391 4.54845 2.322 -2.88314 -22.8981 1.74795 6.39059 
45.8032 97.2677 -67.3258 -103.377 -50.5812 -98.3315 -176.836 0.822347 86.8081 -31.1735 23.6816 3.55756 64.8356 7.45449 15.3624 41.5665 -1.69731 -1.10491 172.541 19.2264 88.6737 -53.0382 -7.87379 0.57211 54.3813 7.6874 15.4888 28.3154 1.08557 6.35913 -0.34755 7.48199 -90.1295 11.9095 -0.752108 -0.178158 0.238807 -0.759216 -0.144899 -22.2978 -0.66379 -0.395977 -2.28518 -0.663789 -0.395975 100.757 -54.9382 -84.2416 30.1178 -11.6677 2.88091 -4.94254 -15.6338 -17.7894 -7.11748 -0.475426 2.81195 -86.4873 -54.2727 84.3859 -20.4697 7.889 -27.4738 -0.975395 33.3288 -3.25527 1.85803 -0.104353 -4.78078 2.19161 2.52122 -4.69023 -23.3056 1.96311 7.57524 
39.7175 97.6984 -61.2629 -102.241 -53.9218 -98.321 -175.51 -4.25503 88.2594 -26.7558 25.6892 3.45008 65.7654 7.66164 12.2484 42.5358 -1.48579 0.665118 173.358 19.0794 87.8685 -26.2791 -0.711919 1.76252 55.2154 8.02756 17.7092 26.7681 1.25729 5.42048 -0.573454 7.44716 -90.1371 11.9792 -1.20479 -0.142906 0.30886 -1.20991 -0.089732 -22.2302 -1.10614 -0.49844 -2.21753 -1.10612 -0.498424 100.967 -55.5232 -83.9194 31.1497 -10.4237 6.57068 -3.92439 -16.3649 -14.7677 -6.47987 -0.447496 3.12794 -86.4169 -53.5342 84.3833 -17.9568 10.5642 -33.588 3.6046 32.4476 -12.5306 0.585614 -0.12966 -5.90919 1.56676 2.07962 -5.02257 -22.4849 1.73178 6.79573 
33.3286 97.4186 -55.0132 -103.479 -57.9098 -101.625 -175.354 -10.9011 89.315 -24.1148 29.6097 4.52434 63.866 6.5621 9.7324 48.3353 -1.7142 2.45565 176.729 16.8689 85.2943 -6.8275 6.4109 -0.860436 56.869 9.54877 19.6498 30.8564 -0.30698 1.01949 -0.858469 7.55064 -90.0102 11.775 -1.71204 0.160909 0.105185 -1.70331 0.23612 -22.4388 -1.68122 -0.361212 -2.42613 -1.68123 -0.361226 101.733 -55.8511 -82.8008 32.2324 -8.23462 8.14684 -3.95013 -18.305 -12.0279 -2.42949 -0.146629 2.43886 -86.9132 -52.5207 83.5088 -16.8828 12.2571 -36.592 7.3714 31.1249 -19.5052 1.32833 -0.172247 -6.89865 1.96637 1.25197 -5.63435 -22.2416 0.900704 7.64771 
25.7958 95.8081 -47.9526 -102.999 -58.7825 -100.51 -176.344 -12.4563 91.2001 -31.6997 30.5463 7.0479 60.4409 3.39889 6.65736 58.9781 -2.56126 3.24264 175.155 18.2655 86.2756 -12.6384 3.8657 1.37133 53.5638 9.03513 14.3174 25.8226 1.10969 2.95618 -0.8882 7.43519 -90.3474 12.0041 -1.92984 -0.482986 0.334547 -1.94921 -0.39756 -22.2096 -1.69543 -1.04079 -2.19691 -1.69543 -1.04079 101.511 -55.2261 -83.1289 31.7775 -6.88197 8.55215 -3.04279 -18.8174 -9.0895 -1.11275 -0.0623869 2.90771 -86.9565 -54.0743 83.6813 -17.162 13.1308 -34.054 9.16926 32.5535 -21.8527 2.03953 -0.157564 -6.10904 2.00137 1.5416 -2.76054 -22.7655 0.815889 6.92587 
18.3079 95.136 -40.7128 -102.515 -57.105 -97.5138 -178.046 -8.99424 95.0538 -42.5121 23.0546 7.26784 49.2538 -4.33811 -0.518298 55.9706 -3.35766 -0.307053 174.068 21.53 89.4667 -29.6914 -4.62332 3.513 55.6624 7.78788 8.16985 24.5295 1.12211 1.00929 -0.796925 7.38041 -90.8794 12.0969 -1.99976 -1.53486 0.426641 -2.06536 -1.44536 -22.1084 -1.44612 -2.06483 -2.09579 -1.44612 -2.06483 101.196 -54.5138 -83.6024 29.6259 -7.30457 5.50622 -2.57275 -19.7126 -8.02347 -1.76733 -0.115821 4.12316 -87.0665 -54.9491 83.6541 -21.0765 12.2217 -26.3299 6.49688 33.231 -17.2384 1.81784 -0.144208 -5.85806 3.26934 2.31583 -2.21573 -23.9604 1.17563 8.50042 
11.4039 95.3453 -34.4171 -104.183 -57.065 -97.9091 -179.361 2.6147 91.0262 -58.8431 9.88088 5.79401 47.7632 -2.80696 4.85062 50.38 -1.74293 3.06562 173.4 17.5303 91.2295 -36.3799 -3.68785 4.52421 63.1428 4.67829 7.31049 26.9155 0.881392 3.02118 -0.607594 7.53974 -91.0587 11.7755 -1.7058 -1.93019 0.104375 -1.78905 -1.85327 -22.4235 -1.04701 -2.35342 -2.4108 -1.04701 -2.35343 101.458 -54.5186 -83.2163 27.6809 -8.35488 1.61947 -4.01896 -16.4462 -13.8827 -6.5124 -0.595386 5.69683 -87.4985 -55.1104 83.0633 -23.5367 10.8758 -23.3517 -2.11498 36.3337 -3.6081 -2.54545 -0.0908012 -5.42181 4.1478 1.38257 -4.0613 -24.1654 0.814601 7.1597 
4.55853 96.401 -28.3808 -103.495 -54.1183 -98.7881 -178.544 12.5533 90.0803 -60.6747 9.12047 3.65162 52.295 1.07777 8.28678 53.6713 -2.21046 2.58416 174.466 11.2969 91.3649 -36.4547 -1.40664 2.42505 68.9159 4.56347 10.858 25.1414 1.50679 5.10006 -0.109548 7.58302 -90.8386 11.7007 -0.611322 -1.60743 0.0289368 -0.681459 -1.57899 -22.4983 -0.100045 -1.71682 -2.48568 -0.100034 -1.71681 101.159 -53.9683 -83.6657 25.9448 -10.15 -3.29755 -5.37649 -14.3899 -20.0251 -11.73 -1.02801 5.16942 -87.4404 -55.1131 83.1464 -25.1517 9.00452 -18.4752 -4.32008 42.024 -0.00869089 -5.11233 -0.0721728 -5.13754 2.20656 0.646933 -4.57776 -23.293 0.455505 5.39043 
-1.58199 97.2905 -22.4592 -101.762 -49.2956 -98.326 -177.163 16.9979 87.5526 -44.1144 8.22017 1.53292 54.9334 2.67113 8.02122 54.6858 -1.66765 4.75781 174.885 4.40379 91.4496 -33.0178 -1.68732 0.718464 71.4206 5.12715 14.0512 24.0907 1.88674 6.69511 0.414957 7.61663 -90.638 11.6414 0.526425 -1.32631 -0.0301501 0.467534 -1.3482 -22.5623 0.900676 -1.10682 -2.54964 0.900685 -1.10683 100.668 -53.4408 -84.4117 22.7972 -12.416 -9.78708 -5.46105 -10.5066 -24.4893 -12.2518 -0.843437 2.87082 -87.4698 -55.9673 83.2352 -24.8878 7.80234 -10.9486 -4.38095 40.5424 -0.00876204 -5.32341 -0.0872229 -4.35312 1.28734 0.83176 -4.39094 -22.1624 0.504794 6.1544 
-7.33402 97.3412 -16.6343 -100.187 -46.8886 -96.133 -177.501 16.7111 88.2876 -16.5636 7.79959 0.709375 53.1536 0.723947 7.94109 47.1817 -0.943325 5.21681 174.831 -1.73293 89.3794 -29.0818 -0.0568655 0.291896 71.9863 6.03179 17.5506 26.0521 1.562 6.78286 0.547986 7.6632 -90.6994 11.5505 0.762943 -1.47208 -0.121075 0.697422 -1.50424 -22.6534 1.17005 -1.17479 -2.64073 1.17006 -1.17479 99.7123 -52.2568 -85.8918 19.8204 -14.3407 -16.8175 -6.70693 -10.3328 -27.6902 -10.8482 -0.621148 1.55096 -86.9914 -56.9608 84.0542 -25.1888 6.43675 -5.0866 -3.93101 36.893 -0.00826046 -6.04189 -0.0407587 -5.94446 2.3423 1.69791 -3.27192 -21.0345 1.24254 6.46081 
